# MagicaVoxel @ Ephtracy

# group
o 

# material
mtllib glider.mtl
usemtl palette

# normals
vn -1 0 0
vn 1 0 0
vn 0 0 1
vn 0 0 -1
vn 0 -1 0
vn 0 1 0

# texcoords
vt 0.705078 0.5
vt 0.994141 0.5

# verts
v -1 0 -0.9
v -1 0 -1.1
v -1 0.1 -0.9
v -1 0.1 -1.1
v -0.9 0 -0.7
v -0.9 0 -0.8
v -0.9 0 -0.9
v -0.9 0.1 -0.7
v -0.9 0.1 -0.8
v -0.9 0.1 -0.9
v -0.8 0 -0.5
v -0.8 0 -0.6
v -0.8 0 -0.7
v -0.8 0.1 -0.5
v -0.8 0.1 -0.6
v -0.8 0.1 -0.7
v -0.7 0 -0.3
v -0.7 0 -0.4
v -0.7 0 -0.5
v -0.7 0.1 -0.3
v -0.7 0.1 -0.4
v -0.7 0.1 -0.5
v -0.6 0 -0.1
v -0.6 0 -0.3
v -0.6 0.1 -0.1
v -0.6 0.1 -0.3
v -0.5 0 0.2
v -0.5 0 0
v -0.5 0 -0.1
v -0.5 0.1 0.2
v -0.5 0.1 0
v -0.5 0.1 -0.1
v -0.4 0 0.4
v -0.4 0 0.2
v -0.4 0.1 0.4
v -0.4 0.1 0.2
v -0.3 0 0.6
v -0.3 0 0.4
v -0.3 0.1 0.6
v -0.3 0.1 0.4
v -0.2 0 0.8
v -0.2 0 0.7
v -0.2 0 0.6
v -0.2 0.1 0.8
v -0.2 0.1 0.7
v -0.2 0.1 0.6
v -0.1 0 1
v -0.1 0 0.8
v -0.1 0.1 1
v -0.1 0.1 0.8
v 0.1 0 1
v 0.1 0 0.8
v 0.1 0.1 1
v 0.1 0.1 0.8
v 0.2 0 0.8
v 0.2 0 0.7
v 0.2 0 0.6
v 0.2 0.1 0.8
v 0.2 0.1 0.7
v 0.2 0.1 0.6
v 0.3 0 0.6
v 0.3 0 0.5
v 0.3 0 0.4
v 0.3 0.1 0.6
v 0.3 0.1 0.5
v 0.3 0.1 0.4
v 0.4 0 0.4
v 0.4 0 0.3
v 0.4 0 0.2
v 0.4 0.1 0.4
v 0.4 0.1 0.3
v 0.4 0.1 0.2
v 0.5 0 0.2
v 0.5 0 0.1
v 0.5 0 -0.1
v 0.5 0.1 0.2
v 0.5 0.1 0.1
v 0.5 0.1 -0.1
v 0.6 0 -0.1
v 0.6 0 -0.2
v 0.6 0 -0.3
v 0.6 0.1 -0.1
v 0.6 0.1 -0.2
v 0.6 0.1 -0.3
v 0.7 0 -0.3
v 0.7 0 -0.5
v 0.7 0.1 -0.3
v 0.7 0.1 -0.5
v 0.8 0 -0.5
v 0.8 0 -0.6
v 0.8 0 -0.7
v 0.8 0.1 -0.5
v 0.8 0.1 -0.6
v 0.8 0.1 -0.7
v 0.9 0 -0.7
v 0.9 0 -0.8
v 0.9 0 -0.9
v 0.9 0.1 -0.7
v 0.9 0.1 -0.8
v 0.9 0.1 -0.9
v 1 0 -0.9
v 1 0 -1.1
v 1 0.1 -0.9
v 1 0.1 -1.1
v -0.1 0 1
v -0.1 0.1 1
v 0.1 0 1
v 0.1 0.1 1
v -0.2 0 0.8
v -0.2 0.1 0.8
v -0.1 0 0.8
v -0.1 0.1 0.8
v 0.1 0 0.8
v 0.1 0.1 0.8
v 0.2 0 0.8
v 0.2 0.1 0.8
v -0.3 0 0.6
v -0.3 0.1 0.6
v -0.2 0 0.6
v -0.2 0.1 0.6
v 0.2 0 0.6
v 0.2 0.1 0.6
v 0.3 0 0.6
v 0.3 0.1 0.6
v -0.4 0 0.4
v -0.4 0.1 0.4
v -0.3 0 0.4
v -0.3 0.1 0.4
v 0.3 0 0.4
v 0.3 0.1 0.4
v 0.4 0 0.4
v 0.4 0.1 0.4
v -0.5 0 0.2
v -0.5 0.1 0.2
v -0.4 0 0.2
v -0.4 0.1 0.2
v 0.4 0 0.2
v 0.4 0.1 0.2
v 0.5 0 0.2
v 0.5 0.1 0.2
v -0.6 0 -0.1
v -0.6 0.1 -0.1
v -0.5 0 -0.1
v -0.5 0.1 -0.1
v 0.5 0 -0.1
v 0.5 0.1 -0.1
v 0.6 0 -0.1
v 0.6 0.1 -0.1
v -0.7 0 -0.3
v -0.7 0.1 -0.3
v -0.6 0 -0.3
v -0.6 0.1 -0.3
v 0.6 0 -0.3
v 0.6 0.1 -0.3
v 0.7 0 -0.3
v 0.7 0.1 -0.3
v -0.8 0 -0.5
v -0.8 0.1 -0.5
v -0.7 0 -0.5
v -0.7 0.1 -0.5
v 0.7 0 -0.5
v 0.7 0.1 -0.5
v 0.8 0 -0.5
v 0.8 0.1 -0.5
v -0.9 0 -0.7
v -0.9 0.1 -0.7
v -0.8 0 -0.7
v -0.8 0.1 -0.7
v 0.8 0 -0.7
v 0.8 0.1 -0.7
v 0.9 0 -0.7
v 0.9 0.1 -0.7
v -1 0 -0.9
v -1 0.1 -0.9
v -0.9 0 -0.9
v -0.9 0.1 -0.9
v 0.9 0 -0.9
v 0.9 0.1 -0.9
v 1 0 -0.9
v 1 0.1 -0.9
v -1 0 -1.1
v -1 0.1 -1.1
v 1 0 -1.1
v 1 0.1 -1.1
v -0.1 0 1
v 0.1 0 1
v -0.2 0 0.8
v -0.1 0 0.8
v 0.1 0 0.8
v 0.2 0 0.8
v -0.2 0 0.7
v -0.1 0 0.7
v 0.1 0 0.7
v 0.2 0 0.7
v -0.3 0 0.6
v -0.2 0 0.6
v 0.2 0 0.6
v 0.3 0 0.6
v 0.2 0 0.5
v 0.3 0 0.5
v -0.4 0 0.4
v -0.3 0 0.4
v -0.2 0 0.4
v 0.3 0 0.4
v 0.4 0 0.4
v 0.3 0 0.3
v 0.4 0 0.3
v -0.5 0 0.2
v -0.4 0 0.2
v -0.3 0 0.2
v 0.4 0 0.2
v 0.5 0 0.2
v 0.4 0 0.1
v 0.5 0 0.1
v -0.5 0 0
v -0.4 0 0
v -0.6 0 -0.1
v -0.5 0 -0.1
v 0.5 0 -0.1
v 0.6 0 -0.1
v 0.5 0 -0.2
v 0.6 0 -0.2
v -0.7 0 -0.3
v -0.6 0 -0.3
v 0.6 0 -0.3
v 0.7 0 -0.3
v -0.7 0 -0.4
v -0.6 0 -0.4
v -0.8 0 -0.5
v -0.7 0 -0.5
v 0.7 0 -0.5
v 0.8 0 -0.5
v -0.8 0 -0.6
v -0.7 0 -0.6
v 0.7 0 -0.6
v 0.8 0 -0.6
v -0.9 0 -0.7
v -0.8 0 -0.7
v 0.8 0 -0.7
v 0.9 0 -0.7
v -0.9 0 -0.8
v -0.8 0 -0.8
v 0.8 0 -0.8
v 0.9 0 -0.8
v -1 0 -0.9
v -0.9 0 -0.9
v 0.9 0 -0.9
v 1 0 -0.9
v -0.9 0 -1
v -0.6 0 -1
v -0.5 0 -1
v -0.1 0 -1
v 0.1 0 -1
v 0.6 0 -1
v 0.7 0 -1
v 0.9 0 -1
v -1 0 -1.1
v 1 0 -1.1
v -0.1 0.1 1
v 0.1 0.1 1
v -0.2 0.1 0.8
v -0.1 0.1 0.8
v 0.1 0.1 0.8
v 0.2 0.1 0.8
v -0.2 0.1 0.7
v -0.1 0.1 0.7
v 0.1 0.1 0.7
v 0.2 0.1 0.7
v -0.3 0.1 0.6
v -0.2 0.1 0.6
v 0.2 0.1 0.6
v 0.3 0.1 0.6
v 0.2 0.1 0.5
v 0.3 0.1 0.5
v -0.4 0.1 0.4
v -0.3 0.1 0.4
v -0.2 0.1 0.4
v 0.3 0.1 0.4
v 0.4 0.1 0.4
v 0.3 0.1 0.3
v 0.4 0.1 0.3
v -0.5 0.1 0.2
v -0.4 0.1 0.2
v -0.3 0.1 0.2
v 0.4 0.1 0.2
v 0.5 0.1 0.2
v 0.4 0.1 0.1
v 0.5 0.1 0.1
v -0.5 0.1 0
v -0.4 0.1 0
v -0.6 0.1 -0.1
v -0.5 0.1 -0.1
v 0.5 0.1 -0.1
v 0.6 0.1 -0.1
v 0.5 0.1 -0.2
v 0.6 0.1 -0.2
v -0.7 0.1 -0.3
v -0.6 0.1 -0.3
v 0.6 0.1 -0.3
v 0.7 0.1 -0.3
v -0.7 0.1 -0.4
v -0.6 0.1 -0.4
v -0.8 0.1 -0.5
v -0.7 0.1 -0.5
v 0.7 0.1 -0.5
v 0.8 0.1 -0.5
v -0.8 0.1 -0.6
v -0.7 0.1 -0.6
v 0.7 0.1 -0.6
v 0.8 0.1 -0.6
v -0.9 0.1 -0.7
v -0.8 0.1 -0.7
v 0.8 0.1 -0.7
v 0.9 0.1 -0.7
v -0.9 0.1 -0.8
v -0.8 0.1 -0.8
v 0.8 0.1 -0.8
v 0.9 0.1 -0.8
v -1 0.1 -0.9
v -0.9 0.1 -0.9
v 0.9 0.1 -0.9
v 1 0.1 -0.9
v -0.9 0.1 -1
v -0.6 0.1 -1
v -0.5 0.1 -1
v -0.1 0.1 -1
v 0.1 0.1 -1
v 0.6 0.1 -1
v 0.7 0.1 -1
v 0.9 0.1 -1
v -1 0.1 -1.1
v 1 0.1 -1.1

# faces
f 3/2/1 2/2/1 1/2/1
f 4/2/1 2/2/1 3/2/1
f 8/2/1 6/2/1 5/2/1
f 9/1/1 7/1/1 6/1/1
f 9/2/1 6/2/1 8/2/1
f 10/1/1 7/1/1 9/1/1
f 14/2/1 12/2/1 11/2/1
f 15/1/1 13/1/1 12/1/1
f 15/2/1 12/2/1 14/2/1
f 16/1/1 13/1/1 15/1/1
f 20/2/1 18/2/1 17/2/1
f 21/1/1 19/1/1 18/1/1
f 21/2/1 18/2/1 20/2/1
f 22/1/1 19/1/1 21/1/1
f 25/2/1 24/2/1 23/2/1
f 26/2/1 24/2/1 25/2/1
f 30/2/1 28/2/1 27/2/1
f 31/1/1 29/1/1 28/1/1
f 31/2/1 28/2/1 30/2/1
f 32/1/1 29/1/1 31/1/1
f 35/2/1 34/2/1 33/2/1
f 36/2/1 34/2/1 35/2/1
f 39/2/1 38/2/1 37/2/1
f 40/2/1 38/2/1 39/2/1
f 44/2/1 42/2/1 41/2/1
f 45/1/1 43/1/1 42/1/1
f 45/2/1 42/2/1 44/2/1
f 46/1/1 43/1/1 45/1/1
f 49/2/1 48/2/1 47/2/1
f 50/2/1 48/2/1 49/2/1
f 51/2/2 52/2/2 53/2/2
f 53/2/2 52/2/2 54/2/2
f 55/2/2 56/2/2 58/2/2
f 56/1/2 57/1/2 59/1/2
f 58/2/2 56/2/2 59/2/2
f 59/1/2 57/1/2 60/1/2
f 61/2/2 62/2/2 64/2/2
f 62/1/2 63/1/2 65/1/2
f 64/2/2 62/2/2 65/2/2
f 65/1/2 63/1/2 66/1/2
f 67/2/2 68/2/2 70/2/2
f 68/1/2 69/1/2 71/1/2
f 70/2/2 68/2/2 71/2/2
f 71/1/2 69/1/2 72/1/2
f 73/2/2 74/2/2 76/2/2
f 74/1/2 75/1/2 77/1/2
f 76/2/2 74/2/2 77/2/2
f 77/1/2 75/1/2 78/1/2
f 79/2/2 80/2/2 82/2/2
f 80/1/2 81/1/2 83/1/2
f 82/2/2 80/2/2 83/2/2
f 83/1/2 81/1/2 84/1/2
f 85/2/2 86/2/2 87/2/2
f 87/2/2 86/2/2 88/2/2
f 89/2/2 90/2/2 92/2/2
f 90/1/2 91/1/2 93/1/2
f 92/2/2 90/2/2 93/2/2
f 93/1/2 91/1/2 94/1/2
f 95/2/2 96/2/2 98/2/2
f 96/1/2 97/1/2 99/1/2
f 98/2/2 96/2/2 99/2/2
f 99/1/2 97/1/2 100/1/2
f 101/2/2 102/2/2 103/2/2
f 103/2/2 102/2/2 104/2/2
f 107/2/3 106/2/3 105/2/3
f 108/2/3 106/2/3 107/2/3
f 111/2/3 110/2/3 109/2/3
f 112/2/3 110/2/3 111/2/3
f 115/2/3 114/2/3 113/2/3
f 116/2/3 114/2/3 115/2/3
f 119/2/3 118/2/3 117/2/3
f 120/2/3 118/2/3 119/2/3
f 123/2/3 122/2/3 121/2/3
f 124/2/3 122/2/3 123/2/3
f 127/2/3 126/2/3 125/2/3
f 128/2/3 126/2/3 127/2/3
f 131/2/3 130/2/3 129/2/3
f 132/2/3 130/2/3 131/2/3
f 135/2/3 134/2/3 133/2/3
f 136/2/3 134/2/3 135/2/3
f 139/2/3 138/2/3 137/2/3
f 140/2/3 138/2/3 139/2/3
f 143/2/3 142/2/3 141/2/3
f 144/2/3 142/2/3 143/2/3
f 147/2/3 146/2/3 145/2/3
f 148/2/3 146/2/3 147/2/3
f 151/2/3 150/2/3 149/2/3
f 152/2/3 150/2/3 151/2/3
f 155/2/3 154/2/3 153/2/3
f 156/2/3 154/2/3 155/2/3
f 159/2/3 158/2/3 157/2/3
f 160/2/3 158/2/3 159/2/3
f 163/2/3 162/2/3 161/2/3
f 164/2/3 162/2/3 163/2/3
f 167/2/3 166/2/3 165/2/3
f 168/2/3 166/2/3 167/2/3
f 171/2/3 170/2/3 169/2/3
f 172/2/3 170/2/3 171/2/3
f 175/2/3 174/2/3 173/2/3
f 176/2/3 174/2/3 175/2/3
f 179/2/3 178/2/3 177/2/3
f 180/2/3 178/2/3 179/2/3
f 181/2/4 182/2/4 183/2/4
f 183/2/4 182/2/4 184/2/4
f 188/2/5 186/2/5 185/2/5
f 189/2/5 186/2/5 188/2/5
f 191/2/5 188/2/5 187/2/5
f 191/2/5 190/2/5 189/2/5
f 191/2/5 189/2/5 188/2/5
f 192/2/5 190/2/5 191/2/5
f 193/2/5 190/2/5 192/2/5
f 194/2/5 190/2/5 193/2/5
f 196/1/5 192/1/5 191/1/5
f 197/1/5 194/1/5 193/1/5
f 199/1/5 197/1/5 193/1/5
f 199/2/5 198/2/5 197/2/5
f 200/2/5 198/2/5 199/2/5
f 202/2/5 196/2/5 195/2/5
f 203/1/5 192/1/5 196/1/5
f 203/2/5 196/2/5 202/2/5
f 204/1/5 200/1/5 199/1/5
f 206/1/5 204/1/5 199/1/5
f 206/2/5 205/2/5 204/2/5
f 207/2/5 205/2/5 206/2/5
f 209/2/5 202/2/5 201/2/5
f 210/1/5 203/1/5 202/1/5
f 210/2/5 202/2/5 209/2/5
f 211/1/5 207/1/5 206/1/5
f 213/1/5 211/1/5 206/1/5
f 213/2/5 212/2/5 211/2/5
f 214/2/5 212/2/5 213/2/5
f 215/2/5 209/2/5 208/2/5
f 216/1/5 210/1/5 209/1/5
f 216/2/5 209/2/5 215/2/5
f 218/1/5 216/1/5 215/1/5
f 219/1/5 214/1/5 213/1/5
f 221/1/5 219/1/5 213/1/5
f 221/2/5 220/2/5 219/2/5
f 222/2/5 220/2/5 221/2/5
f 224/2/5 218/2/5 217/2/5
f 225/1/5 222/1/5 221/1/5
f 227/2/5 224/2/5 223/2/5
f 228/2/5 218/2/5 224/2/5
f 228/2/5 224/2/5 227/2/5
f 230/1/5 228/1/5 227/1/5
f 231/2/5 226/2/5 225/2/5
f 233/2/5 230/2/5 229/2/5
f 234/1/5 228/1/5 230/1/5
f 234/2/5 230/2/5 233/2/5
f 235/2/5 232/2/5 231/2/5
f 235/2/5 231/2/5 225/2/5
f 236/2/5 232/2/5 235/2/5
f 238/1/5 234/1/5 233/1/5
f 239/1/5 236/1/5 235/1/5
f 241/2/5 238/2/5 237/2/5
f 242/1/5 234/1/5 238/1/5
f 242/2/5 238/2/5 241/2/5
f 243/1/5 239/1/5 235/1/5
f 243/2/5 240/2/5 239/2/5
f 244/2/5 240/2/5 243/2/5
f 246/1/5 242/1/5 241/1/5
f 247/1/5 244/1/5 243/1/5
f 249/2/5 246/2/5 245/2/5
f 249/1/5 242/1/5 246/1/5
f 250/1/5 228/1/5 234/1/5
f 250/1/5 242/1/5 249/1/5
f 250/2/5 218/2/5 228/2/5
f 250/1/5 234/1/5 242/1/5
f 251/1/5 216/1/5 218/1/5
f 251/2/5 218/2/5 250/2/5
f 252/2/5 193/2/5 192/2/5
f 252/1/5 216/1/5 251/1/5
f 252/1/5 192/1/5 203/1/5
f 252/1/5 203/1/5 210/1/5
f 252/1/5 210/1/5 216/1/5
f 253/1/5 199/1/5 193/1/5
f 253/2/5 193/2/5 252/2/5
f 253/1/5 206/1/5 199/1/5
f 253/1/5 213/1/5 206/1/5
f 253/1/5 225/1/5 221/1/5
f 253/1/5 221/1/5 213/1/5
f 254/2/5 235/2/5 225/2/5
f 254/1/5 225/1/5 253/1/5
f 255/1/5 243/1/5 235/1/5
f 255/2/5 235/2/5 254/2/5
f 255/1/5 247/1/5 243/1/5
f 256/2/5 248/2/5 247/2/5
f 256/1/5 247/1/5 255/1/5
f 257/2/5 251/2/5 250/2/5
f 257/2/5 250/2/5 249/2/5
f 257/2/5 256/2/5 255/2/5
f 257/2/5 252/2/5 251/2/5
f 257/2/5 254/2/5 253/2/5
f 257/2/5 253/2/5 252/2/5
f 257/2/5 249/2/5 245/2/5
f 257/2/5 255/2/5 254/2/5
f 258/2/5 248/2/5 256/2/5
f 258/2/5 256/2/5 257/2/5
f 259/2/6 260/2/6 262/2/6
f 262/2/6 260/2/6 263/2/6
f 261/2/6 262/2/6 265/2/6
f 263/2/6 264/2/6 265/2/6
f 262/2/6 263/2/6 265/2/6
f 265/2/6 264/2/6 266/2/6
f 266/2/6 264/2/6 267/2/6
f 267/2/6 264/2/6 268/2/6
f 265/1/6 266/1/6 270/1/6
f 267/1/6 268/1/6 271/1/6
f 267/1/6 271/1/6 273/1/6
f 271/2/6 272/2/6 273/2/6
f 273/2/6 272/2/6 274/2/6
f 269/2/6 270/2/6 276/2/6
f 270/1/6 266/1/6 277/1/6
f 276/2/6 270/2/6 277/2/6
f 273/1/6 274/1/6 278/1/6
f 273/1/6 278/1/6 280/1/6
f 278/2/6 279/2/6 280/2/6
f 280/2/6 279/2/6 281/2/6
f 275/2/6 276/2/6 283/2/6
f 276/1/6 277/1/6 284/1/6
f 283/2/6 276/2/6 284/2/6
f 280/1/6 281/1/6 285/1/6
f 280/1/6 285/1/6 287/1/6
f 285/2/6 286/2/6 287/2/6
f 287/2/6 286/2/6 288/2/6
f 282/2/6 283/2/6 289/2/6
f 283/1/6 284/1/6 290/1/6
f 289/2/6 283/2/6 290/2/6
f 289/1/6 290/1/6 292/1/6
f 287/1/6 288/1/6 293/1/6
f 287/1/6 293/1/6 295/1/6
f 293/2/6 294/2/6 295/2/6
f 295/2/6 294/2/6 296/2/6
f 291/2/6 292/2/6 298/2/6
f 295/1/6 296/1/6 299/1/6
f 297/2/6 298/2/6 301/2/6
f 298/2/6 292/2/6 302/2/6
f 301/2/6 298/2/6 302/2/6
f 301/1/6 302/1/6 304/1/6
f 299/2/6 300/2/6 305/2/6
f 303/2/6 304/2/6 307/2/6
f 304/1/6 302/1/6 308/1/6
f 307/2/6 304/2/6 308/2/6
f 305/2/6 306/2/6 309/2/6
f 299/2/6 305/2/6 309/2/6
f 309/2/6 306/2/6 310/2/6
f 307/1/6 308/1/6 312/1/6
f 309/1/6 310/1/6 313/1/6
f 311/2/6 312/2/6 315/2/6
f 312/1/6 308/1/6 316/1/6
f 315/2/6 312/2/6 316/2/6
f 309/1/6 313/1/6 317/1/6
f 313/2/6 314/2/6 317/2/6
f 317/2/6 314/2/6 318/2/6
f 315/1/6 316/1/6 320/1/6
f 317/1/6 318/1/6 321/1/6
f 319/2/6 320/2/6 323/2/6
f 320/1/6 316/1/6 323/1/6
f 308/1/6 302/1/6 324/1/6
f 323/1/6 316/1/6 324/1/6
f 302/2/6 292/2/6 324/2/6
f 316/1/6 308/1/6 324/1/6
f 292/1/6 290/1/6 325/1/6
f 324/2/6 292/2/6 325/2/6
f 266/2/6 267/2/6 326/2/6
f 325/1/6 290/1/6 326/1/6
f 277/1/6 266/1/6 326/1/6
f 284/1/6 277/1/6 326/1/6
f 290/1/6 284/1/6 326/1/6
f 267/1/6 273/1/6 327/1/6
f 326/2/6 267/2/6 327/2/6
f 273/1/6 280/1/6 327/1/6
f 280/1/6 287/1/6 327/1/6
f 295/1/6 299/1/6 327/1/6
f 287/1/6 295/1/6 327/1/6
f 299/2/6 309/2/6 328/2/6
f 327/1/6 299/1/6 328/1/6
f 309/1/6 317/1/6 329/1/6
f 328/2/6 309/2/6 329/2/6
f 317/1/6 321/1/6 329/1/6
f 321/2/6 322/2/6 330/2/6
f 329/1/6 321/1/6 330/1/6
f 324/2/6 325/2/6 331/2/6
f 323/2/6 324/2/6 331/2/6
f 329/2/6 330/2/6 331/2/6
f 325/2/6 326/2/6 331/2/6
f 327/2/6 328/2/6 331/2/6
f 326/2/6 327/2/6 331/2/6
f 319/2/6 323/2/6 331/2/6
f 328/2/6 329/2/6 331/2/6
f 330/2/6 322/2/6 332/2/6
f 331/2/6 330/2/6 332/2/6
